<svg width="320" height="320" xmlns="http://www.w3.org/2000/svg">

 <g>
  <title>background</title>
  <rect fill="none" id="canvas_background" height="402" width="582" y="-1" x="-1"/>
 </g>
 <g>
  <title>Layer 1</title>
  <path id="svg_3" fill="#007fff" d="m238.1,179.9c0,43.1 -34.9,78.1 -78.1,78.1s-78,-35 -78,-78.1s78,-117.2 78,-117.2s78.1,74 78.1,117.2z"/>
  <path id="svg_5" fill="#66D0D8" d="m169.8,248.2c-43.1,0 -78.1,-35 -78.1,-78.1c0,-33.5 46.8,-85.4 67.9,-107c-4.3,4.1 -77.6,74.9 -77.6,116.8c0,43.1 34.9,78.1 78,78.1c24,0 45.5,-10.9 59.8,-28c-13.5,11.4 -31,18.2 -50,18.2z"/>
  <path id="svg_7" d="m160,260c-44.1,0 -80,-35.9 -80,-80.1c0,-14.3 8.2,-33.2 24.4,-56.2l3.2,2.3c-15.7,22.4 -23.7,40.5 -23.7,54c0,42 34.1,76.2 76.1,76.2s76.1,-34.2 76.1,-76.2c0,-38.8 -65.8,-104.4 -76.1,-114.5c-4.7,4.6 -21.3,21 -37.6,41.1l-3,-2.5c19.4,-23.8 39.1,-42.5 39.3,-42.7l1.3,-1.4l1.3,1.3c3.2,3 78.7,75.1 78.7,118.6c0,44.1 -35.9,80.1 -80,80.1z"/>
  <ellipse id="svg_9" ry="14.6" rx="14.6" fill="#09eaea" cy="204.3" cx="135.6"/>
 </g>
</svg>