<svg width="48" height="48" xmlns="http://www.w3.org/2000/svg">

 <g>
  <title>background</title>
  <rect fill="none" id="canvas_background" height="402" width="582" y="-1" x="-1"/>
 </g>
 <g>
  <title>Layer 1</title>
  <ellipse id="svg_1" fill="#ffbb00" ry="0.85673" rx="2.97" cy="38.97918" cx="24"/>
  <path id="svg_3" fill="#ffbb00" d="m23.99965,8.16195c-5.37,0 -9.71002,4.35004 -9.71002,9.71002c0,1.71002 0.44,3.31 1.23004,4.70001l-0.01001,0.01001l7.76996,11.63c0.34003,0.51001 1.10004,0.51001 1.44,0l7.76001,-11.63l0,-0.01001c0.79004,-1.39001 1.23004,-2.98999 1.23004,-4.70001c0,-5.35999 -4.36005,-9.71002 -9.71002,-9.71002zm0.33001,15.89001c-2.84003,0.17999 -5.29004,-1.96997 -5.47003,-4.81c-0.17999,-2.83002 1.98004,-5.27997 4.82001,-5.45996c2.83002,-0.18005 5.28003,1.97998 5.46002,4.81c0.17999,2.83997 -1.98004,5.27997 -4.81,5.45996z"/>
  <line id="svg_4" fill="none" stroke="#303030" stroke-width="0.7" stroke-linecap="round" stroke-linejoin="round" stroke-miterlimit="10" y2="24.05609" y1="24.03164" x2="16.50631" x1="16.48186"/>
  <path id="svg_5" fill="none" stroke="#303030" stroke-width="0.7" stroke-linecap="round" stroke-linejoin="round" stroke-miterlimit="10" d="m32.373601,22.909448l-7.76333,11.63006c-0.34316,0.51408 -1.09871,0.51408 -1.44187,0l-7.76333,-11.63006l0.00163,-0.0043c-0.78238,-1.39361 -1.22246,-2.99503 -1.22246,-4.70648c0,-5.35438 4.33974,-9.70635 9.70635,-9.70635c5.35439,0 9.70635,4.35197 9.70635,9.70635c0,1.71145 -0.44009,3.31287 -1.22247,4.70648l-0.00087,0.0043z"/>
  <path id="svg_6" fill="none" stroke="#303030" stroke-width="0.7" stroke-linecap="round" stroke-linejoin="round" stroke-miterlimit="10" d="m30.97119,15.14711c0.17787,0.62385 0.26063,1.28602 0.23215,1.96898"/>
  <path id="svg_7" fill="none" stroke="#303030" stroke-width="0.7" stroke-linecap="round" stroke-linejoin="round" stroke-miterlimit="10" d="m25.22595,10.61856c2.09651,0.08741 3.91058,1.20312 4.9756,2.83991"/>
  <ellipse id="svg_8" fill="none" stroke="#303030" stroke-width="0.7" stroke-linecap="round" stroke-linejoin="round" stroke-miterlimit="10" transform="matrix(0.998,-0.06316,0.06316,0.998,-1.14698,1.55354) " ry="5.14617" rx="5.14617" cy="18.91938" cx="24"/>
  <ellipse id="svg_9" fill="none" stroke="#303030" stroke-width="0.7" stroke-linecap="round" stroke-linejoin="round" stroke-miterlimit="10" ry="0.85673" rx="2.97" cy="38.869771" cx="24.437636"/>
 </g>
</svg>