<svg width="64" height="64" xmlns="http://www.w3.org/2000/svg">

 <g>
  <title>background</title>
  <rect fill="none" id="canvas_background" height="402" width="582" y="-1" x="-1"/>
 </g>
 <g>
  <title>Layer 1</title>
  <path id="svg_3" fill="#241F20" d="m25.037,39.036c-0.021,-0.023 -0.021,-0.043 -0.049,-0.065c-0.856,-0.746 -0.906,-2.151 -0.906,-2.151l0,-30.976c0,-4.772 -2.891,-5.647 -4.423,-5.777l-7.145,0c-0.806,0.022 -4.14,0.38 -4.14,4.803l0,31.876c0,0 0.012,1.455 -0.793,2.135c-0.028,0.022 -0.02,0.038 -0.039,0.06c-3.239,2.567 -5.334,6.518 -5.334,10.974c0,7.743 6.276,14.02 14.02,14.02s14.02,-6.276 14.02,-14.02c-0.001,-4.4 -2.041,-8.31 -5.211,-10.879zm-8.607,21.89c-5.864,0 -10.617,-4.755 -10.617,-10.618c0,-3.52 1.728,-6.618 4.365,-8.547c0.019,-0.019 0.021,-0.034 0.043,-0.052c1.342,-1.148 1.463,-3.478 1.463,-3.478l0,-31.512c0,-1.721 1.396,-3.115 3.116,-3.115l2.856,0c1.721,0 3.115,1.395 3.115,3.115l0,31.598c0.043,0.672 0.318,2.003 1.746,3.304c0.042,0.038 0.067,0.068 0.104,0.104c2.67,1.928 4.426,5.04 4.426,8.584c0,5.862 -4.753,10.617 -10.617,10.617z"/>
  <path id="svg_4" fill="#ffb600" d="m20.302,44.955c-0.003,-0.003 -0.005,-0.005 -0.008,-0.008c-2.21,-1.979 -2.398,-4.103 -2.411,-4.607l0,-6.782c0,-1.432 -0.979,-1.55 -1.246,-1.558l-0.726,0c0,0 -1.339,-0.024 -1.339,1.655l0,6.445c-0.055,1.078 -0.432,3.247 -2.479,4.892c0.002,0.002 0.002,0.003 0.005,0.005c-1.626,1.236 -2.685,3.17 -2.685,5.373c0,3.764 3.051,6.814 6.814,6.814s6.815,-3.051 6.815,-6.814c0.001,-2.228 -1.082,-4.18 -2.74,-5.415z"/>
  <path id="svg_5" fill="#241F20" d="m56.581,39.036c-0.021,-0.023 -0.021,-0.043 -0.049,-0.065c-0.855,-0.746 -0.907,-2.151 -0.907,-2.151l0,-30.976c0,-4.772 -2.89,-5.647 -4.42,-5.777l-7.147,0c-0.807,0.022 -4.14,0.381 -4.14,4.804l0,31.876c0,0 0.011,1.455 -0.793,2.135c-0.027,0.022 -0.02,0.038 -0.039,0.06c-3.24,2.567 -5.334,6.518 -5.334,10.974c0,7.743 6.277,14.02 14.02,14.02c7.744,0 14.021,-6.276 14.021,-14.02c-0.001,-4.401 -2.042,-8.311 -5.212,-10.88zm-8.608,21.89c-5.862,0 -10.616,-4.755 -10.616,-10.618c0,-3.52 1.727,-6.618 4.365,-8.547c0.018,-0.019 0.021,-0.034 0.043,-0.052c1.342,-1.148 1.465,-3.478 1.465,-3.478l0,-31.512c0,-1.721 1.394,-3.115 3.115,-3.115l2.854,0c1.723,0 3.116,1.395 3.116,3.115l0,31.598c0.042,0.672 0.319,2.003 1.746,3.304c0.043,0.038 0.066,0.068 0.104,0.104c2.671,1.928 4.427,5.04 4.427,8.584c0,5.862 -4.753,10.617 -10.619,10.617z"/>
  <path id="svg_6" fill="#ffb600" d="m51.847,44.955c-0.003,-0.003 -0.006,-0.005 -0.009,-0.008c-2.209,-1.979 -2.397,-4.103 -2.41,-4.607l0,-5.55l0,-1.232l0,-15.7c0,-1.266 -0.926,-1.424 -1.3,-1.438l-0.759,0c-0.319,0.008 -1.276,0.154 -1.276,1.657l0,16.713l0.024,0l0,5.31c-0.055,1.078 -0.433,3.247 -2.479,4.892c0.001,0.002 0.003,0.003 0.003,0.005c-1.625,1.236 -2.684,3.17 -2.684,5.373c0,3.764 3.052,6.814 6.814,6.814c3.765,0 6.816,-3.051 6.816,-6.814c0.001,-2.228 -1.082,-4.18 -2.74,-5.415z"/>
 </g>
</svg>