<?xml version="1.0" ?><svg viewBox="0 0 64 64" xmlns="http://www.w3.org/2000/svg"><title/><g data-name="Thermometer" id="Thermometer-2"><path d="M37,32.05V13a11,11,0,0,0-22,0V32.05a17,17,0,1,0,22,0Z" style="fill:#ffe78f"/><path d="M33.4966,35.64,32,34.44V13a6,6,0,0,0-12,0V34.44l-1.4966,1.2a12,12,0,1,0,14.9932,0Z" style="fill:#ff9a76"/><path d="M54,14H42a1,1,0,0,1,0-2H54a1,1,0,0,1,0,2Z" style="fill:#ffd36b"/><path d="M51,22H42a1,1,0,0,1,0-2h9a1,1,0,0,1,0,2Z" style="fill:#ffd36b"/><path d="M48,30H42a1,1,0,0,1,0-2h6a1,1,0,0,1,0,2Z" style="fill:#ffd36b"/></g></svg>